<?xml version="1.0" encoding="utf-8"?>
<!-- Generator: Adobe Illustrator 25.2.1, SVG Export Plug-In . SVG Version: 6.00 Build 0)  -->
<svg version="1.1" id="Camada_1" xmlns="http://www.w3.org/2000/svg" xmlns:xlink="http://www.w3.org/1999/xlink" x="0px" y="0px"
	 viewBox="0 0 595.28 841.89" style="enable-background:new 0 0 595.28 841.89;" xml:space="preserve">
<style type="text/css">
	.st0{opacity:0.8;}
	.st1{font-family:'Bauhaus93';}
	.st2{font-size:36.2518px;}
	.st3{fill:none;}
	.st4{fill:#F39200;stroke:#F9B233;stroke-miterlimit:10;}
	.st5{fill:#F9B233;stroke:#F9B233;stroke-miterlimit:10;}
	.st6{fill:#FFFFFF;stroke:#FFFFFF;stroke-miterlimit:10;}
	.st7{fill:#F9B233;}
</style>
<text transform="matrix(0.8938 0 0 1 189.9098 561.4835)" class="st0 st1 st2">ORANGE JUICE</text>
<g>
	<rect x="252.56" y="226.69" class="st3" width="134.89" height="305.33"/>
	<path class="st4" d="M252.65,252.99L252.65,252.99c65.3-20.06,133.88,18.72,153.18,86.61l0,0
		c19.29,67.89-18.01,139.19-83.31,159.24l0,0c-65.3,20.06-133.88-18.72-153.18-86.61l0,0C150.04,344.34,187.34,273.04,252.65,252.99
		z"/>
	<path class="st5" d="M210.89,273.96L210.89,273.96c50-36,118.61-23.04,153.23,28.94l0,0c34.63,51.98,22.16,123.3-27.84,159.3l0,0
		c-50,36-118.61,23.04-153.23-28.94l0,0C148.42,381.27,160.88,309.95,210.89,273.96z"/>
	<path class="st5" d="M232.86,264.48L232.86,264.48c43.64-31.42,103.52-20.11,133.74,25.26l0,0
		c30.22,45.37,19.34,107.62-24.3,139.04l0,0c-43.64,31.42-103.52,20.11-133.74-25.26l0,0C178.33,358.15,189.21,295.9,232.86,264.48z
		"/>
</g>
<path class="st6" d="M420.7,338.98c10.16,33.89,7.62,67.99-4.7,95.72c-12.33,27.73-34.44,49.1-63.4,57.53
	c-57.93,16.86-121.37-24.41-141.69-92.19c-10.16-33.89-7.62-67.99,4.7-95.72c12.33-27.73,34.44-49.1,63.4-57.53
	c28.96-8.43,59.31-2.33,84.95,14.35C389.6,277.83,410.54,305.09,420.7,338.98z"/>
<path class="st5" d="M408.96,341.09c8.92,29.75,6.6,59.69-4.34,84.08c-10.95,24.37-30.54,43.19-56.16,50.64
	c-51.25,14.92-107.26-21.21-125.09-80.7c-8.92-29.75-6.6-59.69,4.34-84.08c10.95-24.37,30.54-43.19,56.16-50.64
	c25.62-7.46,52.44-2.15,75.08,12.44C381.58,287.44,400.04,311.34,408.96,341.09z"/>
<polygon class="st6" points="313.86,359.01 312.69,360.72 234.87,294.42 236.04,292.71 "/>
<polygon class="st6" points="312.83,360.51 312.85,362.75 215.5,356.48 215.48,354.24 "/>
<polygon class="st6" points="309.19,362.91 310.41,364.8 232.14,422.19 230.92,420.3 "/>
<polygon class="st6" points="311.53,358.15 313.03,358.77 280.88,467.58 279.38,466.96 "/>
<polygon class="st6" points="311.25,363.71 312.74,363.28 346.64,476.34 345.15,476.77 "/>
<polygon class="st6" points="312.27,364.42 313.18,363.09 400.18,437.21 399.27,438.54 "/>
<polygon class="st6" points="310.19,362.91 310.18,361.2 417.05,368.07 417.07,369.79 "/>
<polygon class="st6" points="315.07,361.06 314.14,359.61 400.06,296.62 400.99,298.06 "/>
<polygon class="st6" points="310.79,366.37 309.29,365.74 341.44,256.94 342.94,257.56 "/>
<polygon class="st6" points="314.34,368.63 312.85,369.06 278.96,256.01 280.44,255.57 "/>
<text transform="matrix(0.8938 0 0 1 192.9884 559.3648)" class="st7 st1 st2">ORANGE JUICE</text>
</svg>
