<?xml version="1.0" encoding="utf-8"?>
<!-- Generator: Adobe Illustrator 25.2.1, SVG Export Plug-In . SVG Version: 6.00 Build 0)  -->
<svg version="1.1" id="Camada_1" xmlns="http://www.w3.org/2000/svg" xmlns:xlink="http://www.w3.org/1999/xlink" x="0px" y="0px"
	 viewBox="0 0 595.28 841.89" style="enable-background:new 0 0 595.28 841.89;" xml:space="preserve">
<style type="text/css">
	.st0{fill:none;}
	.st1{fill:#F39200;stroke:#F9B233;stroke-miterlimit:10;}
	.st2{fill:#F9B233;stroke:#F9B233;stroke-miterlimit:10;}
	.st3{fill:#FFFFFF;stroke:#FFFFFF;stroke-miterlimit:10;}
</style>
<text transform="matrix(0.8938 0 0 1 -587.0312 545.9904)" style="opacity:0.8; font-family:'Bauhaus93'; font-size:36.2518px;">ORANGE JUICE</text>
<g>
	<rect x="-524.38" y="211.19" class="st0" width="134.89" height="305.33"/>
	<path class="st1" d="M-524.3,237.49L-524.3,237.49c65.3-20.06,133.88,18.72,153.18,86.61l0,0
		c19.29,67.89-18.01,139.19-83.31,159.24l0,0c-65.3,20.06-133.88-18.72-153.18-86.61l0,0C-626.9,328.84-589.6,257.55-524.3,237.49z"
		/>
	<path class="st2" d="M-566.06,258.46L-566.06,258.46c50-36,118.61-23.04,153.23,28.94l0,0c34.63,51.98,22.16,123.3-27.84,159.3l0,0
		c-50,36-118.61,23.04-153.23-28.94l0,0C-628.52,365.78-616.06,294.46-566.06,258.46z"/>
	<path class="st2" d="M-544.09,248.99L-544.09,248.99c43.64-31.42,103.52-20.11,133.74,25.26l0,0
		c30.22,45.37,19.34,107.62-24.3,139.04l0,0c-43.64,31.42-103.52,20.11-133.74-25.26l0,0
		C-598.61,342.66-587.73,280.41-544.09,248.99z"/>
</g>
<path class="st3" d="M-356.24,323.49c10.16,33.89,7.62,67.99-4.7,95.72c-12.33,27.73-34.44,49.1-63.4,57.53
	c-57.93,16.86-121.37-24.41-141.69-92.19c-10.16-33.89-7.62-67.99,4.7-95.72c12.33-27.73,34.44-49.1,63.4-57.53
	c28.96-8.43,59.31-2.33,84.95,14.35C-387.34,262.33-366.4,289.59-356.24,323.49z"/>
<path class="st2" d="M-367.98,325.6c8.92,29.75,6.6,59.69-4.34,84.08c-10.95,24.37-30.54,43.19-56.16,50.64
	c-51.25,14.92-107.26-21.21-125.09-80.7c-8.92-29.75-6.6-59.69,4.34-84.08c10.95-24.37,30.54-43.19,56.16-50.64
	c25.62-7.46,52.44-2.15,75.08,12.44C-395.36,271.95-376.9,295.85-367.98,325.6z"/>
<polygon class="st3" points="-463.08,343.52 -464.25,345.23 -542.07,278.92 -540.9,277.22 "/>
<polygon class="st3" points="-464.11,345.02 -464.09,347.26 -561.44,340.99 -561.46,338.75 "/>
<polygon class="st3" points="-467.75,347.42 -466.53,349.31 -544.8,406.7 -546.02,404.81 "/>
<polygon class="st3" points="-465.41,342.66 -463.91,343.28 -496.06,452.09 -497.56,451.46 "/>
<polygon class="st3" points="-465.69,348.22 -464.2,347.79 -430.3,460.85 -431.79,461.28 "/>
<polygon class="st3" points="-464.67,348.92 -463.76,347.6 -376.76,421.72 -377.67,423.05 "/>
<polygon class="st3" points="-466.75,347.42 -466.76,345.7 -359.89,352.58 -359.88,354.3 "/>
<polygon class="st3" points="-461.87,345.56 -462.8,344.12 -376.88,281.12 -375.95,282.57 "/>
<polygon class="st3" points="-466.16,350.88 -467.65,350.25 -435.5,241.44 -434,242.07 "/>
<polygon class="st3" points="-462.6,353.14 -464.09,353.57 -497.99,240.51 -496.5,240.08 "/>
<text transform="matrix(0.8938 0 0 1 -583.9526 543.8718)" style="fill:#F9B233; font-family:'Bauhaus93'; font-size:36.2518px;">ORANGE JUICE</text>
</svg>
